<svg xmlns="http://www.w3.org/2000/svg" viewBox="0 0 1200 1200" width="1200" height="1200" preserveAspectRatio="xMidYMid meet" style="width: 100%; height: 100%; transform: translate3d(0px, 0px, 0px);"><defs><clipPath id="__lottie_element_2"><rect width="1200" height="1200" x="0" y="0"/></clipPath><clipPath id="__lottie_element_4"><path d="M0,0 L1200,0 L1200,1200 L0,1200z"/></clipPath><clipPath id="__lottie_element_29"><path d="M0,0 L1200,0 L1200,1200 L0,1200z"/></clipPath></defs><g clip-path="url(#__lottie_element_2)"><g clip-path="url(#__lottie_element_29)" transform="matrix(1,0,0,1,0,80)" opacity="1" style="display: block;"><g transform="matrix(1,0,0,1,-360,60)" opacity="1" style="display: block;"><g opacity="1" transform="matrix(1,0,0,1,1239.85205078125,681.198974609375)"><path fill="rgb(28,3,17)" fill-opacity="1" d=" M-40.37699890136719,47.6150016784668 C-40.37699890136719,47.6150016784668 -21.770000457763672,-47.61399841308594 40.37699890136719,-47.459999084472656 C40.37699890136719,-47.459999084472656 0.9380000233650208,47.6150016784668 0.9380000233650208,47.6150016784668 C0.9380000233650208,47.6150016784668 -40.37699890136719,47.6150016784668 -40.37699890136719,47.6150016784668z"/><path stroke-linecap="round" stroke-linejoin="round" fill-opacity="0" stroke="rgb(26,26,26)" stroke-opacity="1" stroke-width="1" d=" M-40.37699890136719,47.6150016784668 C-40.37699890136719,47.6150016784668 -21.770000457763672,-47.61399841308594 40.37699890136719,-47.459999084472656 C40.37699890136719,-47.459999084472656 0.9380000233650208,47.6150016784668 0.9380000233650208,47.6150016784668 C0.9380000233650208,47.6150016784668 -40.37699890136719,47.6150016784668 -40.37699890136719,47.6150016784668z"/></g><g opacity="1" transform="matrix(1,0,0,1,620.4320068359375,657.10302734375)"><path fill="rgb(255,255,255)" fill-opacity="1" d=" M-38.23500061035156,14.142999649047852 C-38.23500061035156,14.142999649047852 -59.652000427246094,-29.829999923706055 -45.29399871826172,-74.06400299072266 C8.82699966430664,-37.35900115966797 59.65299987792969,74.06400299072266 59.65299987792969,74.06400299072266 C59.65299987792969,74.06400299072266 -12.822999954223633,74.06400299072266 -12.822999954223633,74.06400299072266 C-12.822999954223633,74.06400299072266 -38.23500061035156,14.142999649047852 -38.23500061035156,14.142999649047852z"/><path stroke-linecap="round" stroke-linejoin="round" fill-opacity="0" stroke="rgb(26,26,26)" stroke-opacity="1" stroke-width="2" d=" M-38.23500061035156,14.142999649047852 C-38.23500061035156,14.142999649047852 -59.652000427246094,-29.829999923706055 -45.29399871826172,-74.06400299072266 C8.82699966430664,-37.35900115966797 59.65299987792969,74.06400299072266 59.65299987792969,74.06400299072266 C59.65299987792969,74.06400299072266 -12.822999954223633,74.06400299072266 -12.822999954223633,74.06400299072266 C-12.822999954223633,74.06400299072266 -38.23500061035156,14.142999649047852 -38.23500061035156,14.142999649047852z"/></g><g opacity="1" transform="matrix(1,0,0,1,528.2329711914062,697.4940185546875)"><path fill="rgb(28,3,17)" fill-opacity="1" d=" M-0.15700000524520874,33.672000885009766 C-0.15700000524520874,33.672000885009766 -38.43299865722656,31.266000747680664 -43.138999938964844,-14.53600025177002 C8.314000129699707,-33.67300033569336 43.138999938964844,33.672000885009766 43.138999938964844,33.672000885009766 C43.138999938964844,33.672000885009766 -0.15700000524520874,33.672000885009766 -0.15700000524520874,33.672000885009766z"/><path stroke-linecap="round" stroke-linejoin="round" fill-opacity="0" stroke="rgb(26,26,26)" stroke-opacity="1" stroke-width="1" d=" M-0.15700000524520874,33.672000885009766 C-0.15700000524520874,33.672000885009766 -38.43299865722656,31.266000747680664 -43.138999938964844,-14.53600025177002 C8.314000129699707,-33.67300033569336 43.138999938964844,33.672000885009766 43.138999938964844,33.672000885009766 C43.138999938964844,33.672000885009766 -0.15700000524520874,33.672000885009766 -0.15700000524520874,33.672000885009766z"/></g><g opacity="1" transform="matrix(1,0,0,1,575.1370239257812,685.416015625)"><path fill="rgb(255,255,255)" fill-opacity="1" d=" M-52.70800018310547,-45.75 C-52.70800018310547,-45.75 -42.04199981689453,31.52899932861328 -10.354000091552734,45.75 C-10.354000091552734,45.75 52.70800018310547,45.75 52.70800018310547,45.75 C52.70800018310547,45.75 12.550999641418457,-31.319000244140625 -52.70800018310547,-45.75z"/><path stroke-linecap="round" stroke-linejoin="round" fill-opacity="0" stroke="rgb(26,26,26)" stroke-opacity="1" stroke-width="2" d=" M-52.70800018310547,-45.75 C-52.70800018310547,-45.75 -42.04199981689453,31.52899932861328 -10.354000091552734,45.75 C-10.354000091552734,45.75 52.70800018310547,45.75 52.70800018310547,45.75 C52.70800018310547,45.75 12.550999641418457,-31.319000244140625 -52.70800018310547,-45.75z"/></g><g opacity="1" transform="matrix(1,0,0,1,520.7030029296875,707.06201171875)"><path stroke-linecap="round" stroke-linejoin="round" fill-opacity="0" stroke="rgb(255,255,255)" stroke-opacity="1" stroke-width="2" d=" M-35.60900115966797,-24.104000091552734 C-35.60900115966797,-24.104000091552734 17.097999572753906,19.608999252319336 35.60900115966797,24.104000091552734"/></g><g opacity="1" transform="matrix(1,0,0,1,559.6069946289062,685.416015625)"><path stroke-linecap="round" stroke-linejoin="round" fill-opacity="0" stroke="rgb(26,26,26)" stroke-opacity="1" stroke-width="2" d=" M-37.178001403808594,-45.75 C-37.178001403808594,-45.75 21.17799949645996,40 37.17900085449219,45.75"/></g><g opacity="1" transform="matrix(1,0,0,1,609.72802734375,657.10302734375)"><path stroke-linecap="round" stroke-linejoin="round" fill-opacity="0" stroke="rgb(26,26,26)" stroke-opacity="1" stroke-width="2" d=" M-34.59000015258789,-74.06400299072266 C-34.59000015258789,-74.06400299072266 16.236000061035156,57.96099853515625 34.59000015258789,74.06400299072266"/></g><g opacity="1" transform="matrix(1,0,0,1,1299.8819580078125,669.1019897460938)"><path fill="rgb(255,255,255)" fill-opacity="1" d=" M-78.59300231933594,59.71099853515625 C-78.59300231933594,59.71099853515625 -76.70999908447266,-49.358001708984375 64.4729995727539,-59.71099853515625 C78.59300231933594,-1.3600000143051147 15.529999732971191,59.71099853515625 15.529999732971191,59.71099853515625 C15.529999732971191,59.71099853515625 -78.59300231933594,59.71099853515625 -78.59300231933594,59.71099853515625z"/><path stroke-linecap="round" stroke-linejoin="round" fill-opacity="0" stroke="rgb(26,26,26)" stroke-opacity="1" stroke-width="2" d=" M-78.59300231933594,59.71099853515625 C-78.59300231933594,59.71099853515625 -76.70999908447266,-49.358001708984375 64.4729995727539,-59.71099853515625 C78.59300231933594,-1.3600000143051147 15.529999732971191,59.71099853515625 15.529999732971191,59.71099853515625 C15.529999732971191,59.71099853515625 -78.59300231933594,59.71099853515625 -78.59300231933594,59.71099853515625z"/></g><g opacity="1" transform="matrix(1,0,0,1,1356.1199951171875,678.7420043945312)"><path fill="rgb(255,255,255)" fill-opacity="1" d=" M-72.70999908447266,50.07099914550781 C-72.70999908447266,50.07099914550781 -45.8849983215332,-45.37900161743164 72.70999908447266,-50.07099914550781 C72.70999908447266,-8.880999565124512 54.12099838256836,39.849998474121094 32.70800018310547,50.07099914550781 C32.70800018310547,50.07099914550781 -72.70999908447266,50.07099914550781 -72.70999908447266,50.07099914550781z"/><path stroke-linecap="round" stroke-linejoin="round" fill-opacity="0" stroke="rgb(26,26,26)" stroke-opacity="1" stroke-width="2" d=" M-72.70999908447266,50.07099914550781 C-72.70999908447266,50.07099914550781 -45.8849983215332,-45.37900161743164 72.70999908447266,-50.07099914550781 C72.70999908447266,-8.880999565124512 54.12099838256836,39.849998474121094 32.70800018310547,50.07099914550781 C32.70800018310547,50.07099914550781 -72.70999908447266,50.07099914550781 -72.70999908447266,50.07099914550781z"/></g><g opacity="1" transform="matrix(1,0,0,1,932.1959838867188,833.1810302734375)"><path fill="rgb(255,255,255)" fill-opacity="1" d=" M-411.1780090332031,-104.36799621582031 C-411.1780090332031,-104.36799621582031 456.6319885253906,-104.36799621582031 456.6319885253906,-104.36799621582031 C456.6319885253906,-104.36799621582031 484.593994140625,40.36899948120117 187.3040008544922,42.25199890136719 C130.9669952392578,74.2509994506836 -49.676998138427734,104.36699676513672 -95.83200073242188,29.075000762939453 C-181.5189971923828,70.48600006103516 -484.593994140625,-17.584999084472656 -411.1780090332031,-104.36799621582031z"/><path stroke-linecap="round" stroke-linejoin="round" fill-opacity="0" stroke="rgb(26,26,26)" stroke-opacity="1" stroke-width="2" d=" M-411.1780090332031,-104.36799621582031 C-411.1780090332031,-104.36799621582031 456.6319885253906,-104.36799621582031 456.6319885253906,-104.36799621582031 C456.6319885253906,-104.36799621582031 484.593994140625,40.36899948120117 187.3040008544922,42.25199890136719 C130.9669952392578,74.2509994506836 -49.676998138427734,104.36699676513672 -95.83200073242188,29.075000762939453 C-181.5189971923828,70.48600006103516 -484.593994140625,-17.584999084472656 -411.1780090332031,-104.36799621582031z"/></g><g opacity="1" transform="matrix(1,0,0,1,1375.2979736328125,684.2780151367188)"><path fill="rgb(255,255,255)" fill-opacity="1" d=" M44.35499954223633,-44.53499984741211 C44.35499954223633,-44.53499984741211 -10.472000122070312,27.22800064086914 -44.35599899291992,44.53499984741211"/><path stroke-linecap="round" stroke-linejoin="round" fill-opacity="0" stroke="rgb(26,26,26)" stroke-opacity="1" stroke-width="2" d=" M44.35499954223633,-44.53499984741211 C44.35499954223633,-44.53499984741211 -10.472000122070312,27.22800064086914 -44.35599899291992,44.53499984741211"/></g><g opacity="1" transform="matrix(1,0,0,1,1303.176025390625,678.7420043945312)"><path stroke-linecap="round" stroke-linejoin="round" fill-opacity="0" stroke="rgb(26,26,26)" stroke-opacity="1" stroke-width="2" d=" M44.70800018310547,-50.071998596191406 C44.70800018310547,-50.071998596191406 -34.82600021362305,24.320999145507812 -44.70899963378906,50.07099914550781"/></g><g opacity="1" transform="matrix(1,0,0,1,1419.6529541015625,563.2869873046875)"><path fill="rgb(28,3,17)" fill-opacity="1" d=" M15.253999710083008,0 C15.253999710083008,8.423999786376953 8.423999786376953,15.253000259399414 0,15.253000259399414 C-8.425000190734863,15.253000259399414 -15.253999710083008,8.423999786376953 -15.253999710083008,0 C-15.253999710083008,-8.423999786376953 -8.425000190734863,-15.253000259399414 0,-15.253000259399414 C8.423999786376953,-15.253000259399414 15.253999710083008,-8.423999786376953 15.253999710083008,0z"/><path stroke-linecap="round" stroke-linejoin="round" fill-opacity="0" stroke="rgb(26,26,26)" stroke-opacity="1" stroke-width="1" d=" M15.253999710083008,0 C15.253999710083008,8.423999786376953 8.423999786376953,15.253000259399414 0,15.253000259399414 C-8.425000190734863,15.253000259399414 -15.253999710083008,8.423999786376953 -15.253999710083008,0 C-15.253999710083008,-8.423999786376953 -8.425000190734863,-15.253000259399414 0,-15.253000259399414 C8.423999786376953,-15.253000259399414 15.253999710083008,-8.423999786376953 15.253999710083008,0z"/></g></g></g><g clip-path="url(#__lottie_element_4)" transform="matrix(1,0,0,1,0,80)" opacity="1" style="display: block;"><g transform="matrix(1,0,0,1,-360,60)" opacity="1" style="display: block;"><g opacity="1" transform="matrix(1,0,0,1,0,0)"><g opacity="1" transform="matrix(1,0,0,1,926.239990234375,393.8689880371094)"><path fill="rgb(255,255,255)" fill-opacity="1" d=" M343.87200927734375,151.10899353027344 C343.87200927734375,151.10899353027344 343.87200927734375,-168.33299255371094 343.87200927734375,-168.33299255371094 C343.87200927734375,-174.12100219726562 343.0639953613281,-179.697998046875 341.57598876953125,-184.93499755859375 C341.57598876953125,-184.93499755859375 -341.57598876953125,-184.93499755859375 -341.57598876953125,-184.93499755859375 C-343.0639953613281,-179.697998046875 -343.87200927734375,-174.12100219726562 -343.87200927734375,-168.33299255371094 C-343.87200927734375,-168.33299255371094 -343.87200927734375,151.10899353027344 -343.87200927734375,151.10899353027344 C-343.87200927734375,163.87600708007812 -339.95599365234375,175.61500549316406 -333.406005859375,184.93499755859375 C-333.406005859375,184.93499755859375 333.4070129394531,184.93499755859375 333.4070129394531,184.93499755859375 C339.95599365234375,175.61500549316406 343.87200927734375,163.87600708007812 343.87200927734375,151.10899353027344z"/><path stroke-linecap="round" stroke-linejoin="round" fill-opacity="0" stroke="rgb(26,26,26)" stroke-opacity="1" stroke-width="2" d=" M343.87200927734375,151.10899353027344 C343.87200927734375,151.10899353027344 343.87200927734375,-168.33299255371094 343.87200927734375,-168.33299255371094 C343.87200927734375,-174.12100219726562 343.0639953613281,-179.697998046875 341.57598876953125,-184.93499755859375 C341.57598876953125,-184.93499755859375 -341.57598876953125,-184.93499755859375 -341.57598876953125,-184.93499755859375 C-343.0639953613281,-179.697998046875 -343.87200927734375,-174.12100219726562 -343.87200927734375,-168.33299255371094 C-343.87200927734375,-168.33299255371094 -343.87200927734375,151.10899353027344 -343.87200927734375,151.10899353027344 C-343.87200927734375,163.87600708007812 -339.95599365234375,175.61500549316406 -333.406005859375,184.93499755859375 C-333.406005859375,184.93499755859375 333.4070129394531,184.93499755859375 333.4070129394531,184.93499755859375 C339.95599365234375,175.61500549316406 343.87200927734375,163.87600708007812 343.87200927734375,151.10899353027344z"/></g><g opacity="1" transform="matrix(1,0,0,1,1237.7020263671875,393.8689880371094)"><path fill="rgb(255,129,44)" fill-opacity="1" d=" M32.41400146484375,-168.33099365234375 C32.41400146484375,-168.33099365234375 32.41400146484375,151.10899353027344 32.41400146484375,151.10899353027344 C32.41400146484375,163.87600708007812 28.492000579833984,175.61199951171875 21.94300079345703,184.93299865722656 C21.94300079345703,184.93299865722656 -32.41400146484375,184.93299865722656 -32.41400146484375,184.93299865722656 C-32.41400146484375,184.93299865722656 -32.41400146484375,-184.93299865722656 -32.41400146484375,-184.93299865722656 C-32.41400146484375,-184.93299865722656 30.115999221801758,-184.93299865722656 30.115999221801758,-184.93299865722656 C31.601999282836914,-179.697998046875 32.41400146484375,-174.1199951171875 32.41400146484375,-168.33099365234375z"/><path stroke-linecap="round" stroke-linejoin="round" fill-opacity="0" stroke="rgb(0,0,0)" stroke-opacity="1" stroke-width="2" d=" M32.41400146484375,-168.33099365234375 C32.41400146484375,-168.33099365234375 32.41400146484375,151.10899353027344 32.41400146484375,151.10899353027344 C32.41400146484375,163.87600708007812 28.492000579833984,175.61199951171875 21.94300079345703,184.93299865722656 C21.94300079345703,184.93299865722656 -32.41400146484375,184.93299865722656 -32.41400146484375,184.93299865722656 C-32.41400146484375,184.93299865722656 -32.41400146484375,-184.93299865722656 -32.41400146484375,-184.93299865722656 C-32.41400146484375,-184.93299865722656 30.115999221801758,-184.93299865722656 30.115999221801758,-184.93299865722656 C31.601999282836914,-179.697998046875 32.41400146484375,-174.1199951171875 32.41400146484375,-168.33099365234375z"/></g><g opacity="1" transform="matrix(1,0,0,1,926.239990234375,589.3209838867188)"><path fill="rgb(28,3,17)" fill-opacity="1" d=" M-333.4070129394531,-10.517000198364258 C-324.4129943847656,2.2839999198913574 -310.4440002441406,10.517000198364258 -294.7439880371094,10.517000198364258 C-294.7439880371094,10.517000198364258 294.7439880371094,10.517000198364258 294.7439880371094,10.517000198364258 C310.44500732421875,10.517000198364258 324.4129943847656,2.2839999198913574 333.4070129394531,-10.517000198364258 C333.4070129394531,-10.517000198364258 -333.4070129394531,-10.517000198364258 -333.4070129394531,-10.517000198364258z"/><path stroke-linecap="round" stroke-linejoin="round" fill-opacity="0" stroke="rgb(26,26,26)" stroke-opacity="1" stroke-width="1" d=" M-333.4070129394531,-10.517000198364258 C-324.4129943847656,2.2839999198913574 -310.4440002441406,10.517000198364258 -294.7439880371094,10.517000198364258 C-294.7439880371094,10.517000198364258 294.7439880371094,10.517000198364258 294.7439880371094,10.517000198364258 C310.44500732421875,10.517000198364258 324.4129943847656,2.2839999198913574 333.4070129394531,-10.517000198364258 C333.4070129394531,-10.517000198364258 -333.4070129394531,-10.517000198364258 -333.4070129394531,-10.517000198364258z"/></g><g opacity="1" transform="matrix(1,0,0,1,926.239990234375,189.80499267578125)"><path fill="rgb(28,3,17)" fill-opacity="1" d=" M294.7449951171875,-19.128999710083008 C294.7449951171875,-19.128999710083008 -294.7430114746094,-19.128999710083008 -294.7430114746094,-19.128999710083008 C-316.6929931640625,-19.128999710083008 -335.2760009765625,-3.052000045776367 -341.57598876953125,19.128999710083008 C-341.57598876953125,19.128999710083008 341.57598876953125,19.128999710083008 341.57598876953125,19.128999710083008 C335.2760009765625,-3.052000045776367 316.69500732421875,-19.128999710083008 294.7449951171875,-19.128999710083008z"/><path stroke-linecap="round" stroke-linejoin="round" fill-opacity="0" stroke="rgb(26,26,26)" stroke-opacity="1" stroke-width="1" d=" M294.7449951171875,-19.128999710083008 C294.7449951171875,-19.128999710083008 -294.7430114746094,-19.128999710083008 -294.7430114746094,-19.128999710083008 C-316.6929931640625,-19.128999710083008 -335.2760009765625,-3.052000045776367 -341.57598876953125,19.128999710083008 C-341.57598876953125,19.128999710083008 341.57598876953125,19.128999710083008 341.57598876953125,19.128999710083008 C335.2760009765625,-3.052000045776367 316.69500732421875,-19.128999710083008 294.7449951171875,-19.128999710083008z"/></g><g opacity="1" transform="matrix(1,0,0,1,710.5570068359375,461.3609924316406)"><path fill="rgb(255,255,255)" fill-opacity="1" d=" M43.73400115966797,86.38500213623047 C43.73400115966797,86.38500213623047 -43.73500061035156,86.38500213623047 -43.73500061035156,86.38500213623047 C-56.16400146484375,86.38500213623047 -66.23899841308594,76.31099700927734 -66.23899841308594,63.88199996948242 C-66.23899841308594,63.88199996948242 -66.23899841308594,-63.88100051879883 -66.23899841308594,-63.88100051879883 C-66.23899841308594,-76.30999755859375 -56.16400146484375,-86.38500213623047 -43.73500061035156,-86.38500213623047 C-43.73500061035156,-86.38500213623047 43.73400115966797,-86.38500213623047 43.73400115966797,-86.38500213623047 C56.16299819946289,-86.38500213623047 66.23799896240234,-76.30999755859375 66.23799896240234,-63.88100051879883 C66.23799896240234,-63.88100051879883 66.23799896240234,63.88199996948242 66.23799896240234,63.88199996948242 C66.23799896240234,76.31099700927734 56.16299819946289,86.38500213623047 43.73400115966797,86.38500213623047z"/><path stroke-linecap="round" stroke-linejoin="round" fill-opacity="0" stroke="rgb(26,26,26)" stroke-opacity="1" stroke-width="2" d=" M43.73400115966797,86.38500213623047 C43.73400115966797,86.38500213623047 -43.73500061035156,86.38500213623047 -43.73500061035156,86.38500213623047 C-56.16400146484375,86.38500213623047 -66.23899841308594,76.31099700927734 -66.23899841308594,63.88199996948242 C-66.23899841308594,63.88199996948242 -66.23899841308594,-63.88100051879883 -66.23899841308594,-63.88100051879883 C-66.23899841308594,-76.30999755859375 -56.16400146484375,-86.38500213623047 -43.73500061035156,-86.38500213623047 C-43.73500061035156,-86.38500213623047 43.73400115966797,-86.38500213623047 43.73400115966797,-86.38500213623047 C56.16299819946289,-86.38500213623047 66.23799896240234,-76.30999755859375 66.23799896240234,-63.88100051879883 C66.23799896240234,-63.88100051879883 66.23799896240234,63.88199996948242 66.23799896240234,63.88199996948242 C66.23799896240234,76.31099700927734 56.16299819946289,86.38500213623047 43.73400115966797,86.38500213623047z"/></g><g opacity="1" transform="matrix(1,0,0,1,650.6710205078125,192.93499755859375)"><path fill="rgb(255,255,255)" fill-opacity="1" d=" M10.824000358581543,0 C10.824000358581543,-5.978000164031982 5.978000164031982,-10.822999954223633 0,-10.822999954223633 C-5.978000164031982,-10.822999954223633 -10.824000358581543,-5.978000164031982 -10.824000358581543,0 C-10.824000358581543,5.978000164031982 -5.978000164031982,10.822999954223633 0,10.822999954223633 C5.978000164031982,10.822999954223633 10.824000358581543,5.978000164031982 10.824000358581543,0z"/><path stroke-linecap="round" stroke-linejoin="round" fill-opacity="0" stroke="rgb(26,26,26)" stroke-opacity="1" stroke-width="2" d=" M10.824000358581543,0 C10.824000358581543,-5.978000164031982 5.978000164031982,-10.822999954223633 0,-10.822999954223633 C-5.978000164031982,-10.822999954223633 -10.824000358581543,-5.978000164031982 -10.824000358581543,0 C-10.824000358581543,5.978000164031982 -5.978000164031982,10.822999954223633 0,10.822999954223633 C5.978000164031982,10.822999954223633 10.824000358581543,5.978000164031982 10.824000358581543,0z"/></g><g opacity="1" transform="matrix(1,0,0,1,713.7329711914062,192.93499755859375)"><path fill="rgb(255,255,255)" fill-opacity="1" d=" M10.824000358581543,0 C10.824000358581543,-5.978000164031982 5.978000164031982,-10.822999954223633 0,-10.822999954223633 C-5.978000164031982,-10.822999954223633 -10.824000358581543,-5.978000164031982 -10.824000358581543,0 C-10.824000358581543,5.978000164031982 -5.978000164031982,10.822999954223633 0,10.822999954223633 C5.978000164031982,10.822999954223633 10.824000358581543,5.978000164031982 10.824000358581543,0z"/><path stroke-linecap="round" stroke-linejoin="round" fill-opacity="0" stroke="rgb(26,26,26)" stroke-opacity="1" stroke-width="2" d=" M10.824000358581543,0 C10.824000358581543,-5.978000164031982 5.978000164031982,-10.822999954223633 0,-10.822999954223633 C-5.978000164031982,-10.822999954223633 -10.824000358581543,-5.978000164031982 -10.824000358581543,0 C-10.824000358581543,5.978000164031982 -5.978000164031982,10.822999954223633 0,10.822999954223633 C5.978000164031982,10.822999954223633 10.824000358581543,5.978000164031982 10.824000358581543,0z"/></g><g opacity="1" transform="matrix(1,0,0,1,776.7960205078125,192.93499755859375)"><path fill="rgb(255,255,255)" fill-opacity="1" d=" M10.824000358581543,0 C10.824000358581543,-5.978000164031982 5.978000164031982,-10.822999954223633 0,-10.822999954223633 C-5.978000164031982,-10.822999954223633 -10.824000358581543,-5.978000164031982 -10.824000358581543,0 C-10.824000358581543,5.978000164031982 -5.978000164031982,10.822999954223633 0,10.822999954223633 C5.978000164031982,10.822999954223633 10.824000358581543,5.978000164031982 10.824000358581543,0z"/><path stroke-linecap="round" stroke-linejoin="round" fill-opacity="0" stroke="rgb(26,26,26)" stroke-opacity="1" stroke-width="2" d=" M10.824000358581543,0 C10.824000358581543,-5.978000164031982 5.978000164031982,-10.822999954223633 0,-10.822999954223633 C-5.978000164031982,-10.822999954223633 -10.824000358581543,-5.978000164031982 -10.824000358581543,0 C-10.824000358581543,5.978000164031982 -5.978000164031982,10.822999954223633 0,10.822999954223633 C5.978000164031982,10.822999954223633 10.824000358581543,5.978000164031982 10.824000358581543,0z"/></g><g opacity="1" transform="matrix(1,0,0,1,582.43701171875,463.1719970703125)"><path fill="rgb(255,255,255)" fill-opacity="1" d=" M19.469999313354492,0 C19.469999313354492,10.753000259399414 10.753000259399414,19.469999313354492 0,19.469999313354492 C-10.753000259399414,19.469999313354492 -19.469999313354492,10.753000259399414 -19.469999313354492,0 C-19.469999313354492,-10.753000259399414 -10.753000259399414,-19.469999313354492 0,-19.469999313354492 C10.753000259399414,-19.469999313354492 19.469999313354492,-10.753000259399414 19.469999313354492,0z"/><path stroke-linecap="round" stroke-linejoin="round" fill-opacity="0" stroke="rgb(26,26,26)" stroke-opacity="1" stroke-width="2" d=" M19.469999313354492,0 C19.469999313354492,10.753000259399414 10.753000259399414,19.469999313354492 0,19.469999313354492 C-10.753000259399414,19.469999313354492 -19.469999313354492,10.753000259399414 -19.469999313354492,0 C-19.469999313354492,-10.753000259399414 -10.753000259399414,-19.469999313354492 0,-19.469999313354492 C10.753000259399414,-19.469999313354492 19.469999313354492,-10.753000259399414 19.469999313354492,0z"/></g><g opacity="1" transform="matrix(1,0,0,1,1356.1199951171875,478.7090148925781)"><path fill="rgb(255,255,255)" fill-opacity="1" d=" M20.70800018310547,-0.10599999874830246 C20.70800018310547,-0.10599999874830246 20.70800018310547,0.11400000005960464 20.70800018310547,0.11400000005960464 C20.70800018310547,1.7730000019073486 19.358999252319336,3.121000051498413 17.700000762939453,3.121000051498413 C17.700000762939453,3.121000051498413 -17.691999435424805,3.121000051498413 -17.691999435424805,3.121000051498413 C-19.358999252319336,3.121000051498413 -20.70800018310547,1.7730000019073486 -20.70800018310547,0.11400000005960464 C-20.70800018310547,0.11400000005960464 -20.70800018310547,-0.10599999874830246 -20.70800018310547,-0.10599999874830246 C-20.70800018310547,-1.7730000019073486 -19.358999252319336,-3.121000051498413 -17.691999435424805,-3.121000051498413 C-17.691999435424805,-3.121000051498413 17.700000762939453,-3.121000051498413 17.700000762939453,-3.121000051498413 C19.358999252319336,-3.121000051498413 20.70800018310547,-1.7730000019073486 20.70800018310547,-0.10599999874830246z"/><path stroke-linecap="round" stroke-linejoin="round" fill-opacity="0" stroke="rgb(26,26,26)" stroke-opacity="1" stroke-width="2" d=" M20.70800018310547,-0.10599999874830246 C20.70800018310547,-0.10599999874830246 20.70800018310547,0.11400000005960464 20.70800018310547,0.11400000005960464 C20.70800018310547,1.7730000019073486 19.358999252319336,3.121000051498413 17.700000762939453,3.121000051498413 C17.700000762939453,3.121000051498413 -17.691999435424805,3.121000051498413 -17.691999435424805,3.121000051498413 C-19.358999252319336,3.121000051498413 -20.70800018310547,1.7730000019073486 -20.70800018310547,0.11400000005960464 C-20.70800018310547,0.11400000005960464 -20.70800018310547,-0.10599999874830246 -20.70800018310547,-0.10599999874830246 C-20.70800018310547,-1.7730000019073486 -19.358999252319336,-3.121000051498413 -17.691999435424805,-3.121000051498413 C-17.691999435424805,-3.121000051498413 17.700000762939453,-3.121000051498413 17.700000762939453,-3.121000051498413 C19.358999252319336,-3.121000051498413 20.70800018310547,-1.7730000019073486 20.70800018310547,-0.10599999874830246z"/></g><g opacity="1" transform="matrix(1,0,0,1,1356.1199951171875,431.55499267578125)"><path fill="rgb(255,255,255)" fill-opacity="1" d=" M33.810001373291016,-10.22599983215332 C33.810001373291016,-3.9260001182556152 32.0880012512207,1.968999981880188 29.0939998626709,7.013000011444092 C28.469999313354492,8.064000129699707 14.538000106811523,44.03300094604492 14.538000106811523,44.03300094604492 C14.538000106811523,44.03300094604492 -14.755999565124512,44.03300094604492 -14.755999565124512,44.03300094604492 C-14.755999565124512,44.03300094604492 -28.194000244140625,8.472999572753906 -28.7189998626709,7.630000114440918 C-31.94499969482422,2.4509999752044678 -33.808998107910156,-3.6659998893737793 -33.808998107910156,-10.22599983215332 C-33.808998107910156,-28.898000717163086 -18.67300033569336,-44.03300094604492 0,-44.03300094604492 C18.673999786376953,-44.03300094604492 33.810001373291016,-28.898000717163086 33.810001373291016,-10.22599983215332z"/><path stroke-linecap="round" stroke-linejoin="round" fill-opacity="0" stroke="rgb(26,26,26)" stroke-opacity="1" stroke-width="2" d=" M33.810001373291016,-10.22599983215332 C33.810001373291016,-3.9260001182556152 32.0880012512207,1.968999981880188 29.0939998626709,7.013000011444092 C28.469999313354492,8.064000129699707 14.538000106811523,44.03300094604492 14.538000106811523,44.03300094604492 C14.538000106811523,44.03300094604492 -14.755999565124512,44.03300094604492 -14.755999565124512,44.03300094604492 C-14.755999565124512,44.03300094604492 -28.194000244140625,8.472999572753906 -28.7189998626709,7.630000114440918 C-31.94499969482422,2.4509999752044678 -33.808998107910156,-3.6659998893737793 -33.808998107910156,-10.22599983215332 C-33.808998107910156,-28.898000717163086 -18.67300033569336,-44.03300094604492 0,-44.03300094604492 C18.673999786376953,-44.03300094604492 33.810001373291016,-28.898000717163086 33.810001373291016,-10.22599983215332z"/></g><g opacity="1" transform="matrix(1,0,0,1,1356.1199951171875,494.385009765625)"><path fill="rgb(255,255,255)" fill-opacity="1" d=" M14.423999786376953,-12.555999755859375 C14.423999786376953,-12.555999755859375 11.446000099182129,6.495999813079834 11.446000099182129,6.495999813079834 C11.446000099182129,9.843999862670898 9.121000289916992,12.555999755859375 6.25,12.555999755859375 C6.25,12.555999755859375 -6.257999897003174,12.555999755859375 -6.257999897003174,12.555999755859375 C-9.121000289916992,12.555999755859375 -11.446000099182129,9.843999862670898 -11.446000099182129,6.495999813079834 C-11.446000099182129,6.495999813079834 -14.423999786376953,-12.555999755859375 -14.423999786376953,-12.555999755859375 C-14.423999786376953,-12.555999755859375 14.423999786376953,-12.555999755859375 14.423999786376953,-12.555999755859375z"/><path stroke-linecap="round" stroke-linejoin="round" fill-opacity="0" stroke="rgb(26,26,26)" stroke-opacity="1" stroke-width="2" d=" M14.423999786376953,-12.555999755859375 C14.423999786376953,-12.555999755859375 11.446000099182129,6.495999813079834 11.446000099182129,6.495999813079834 C11.446000099182129,9.843999862670898 9.121000289916992,12.555999755859375 6.25,12.555999755859375 C6.25,12.555999755859375 -6.257999897003174,12.555999755859375 -6.257999897003174,12.555999755859375 C-9.121000289916992,12.555999755859375 -11.446000099182129,9.843999862670898 -11.446000099182129,6.495999813079834 C-11.446000099182129,6.495999813079834 -14.423999786376953,-12.555999755859375 -14.423999786376953,-12.555999755859375 C-14.423999786376953,-12.555999755859375 14.423999786376953,-12.555999755859375 14.423999786376953,-12.555999755859375z"/></g><g opacity="1" transform="matrix(1,0,0,1,0,0)"><path fill="rgb(255,255,255)" fill-opacity="1" d=" M1342.7349853515625,488.1059875488281 C1342.7349853515625,488.1059875488281 1369.5050048828125,488.1059875488281 1369.5050048828125,488.1059875488281"/><path stroke-linecap="round" stroke-linejoin="round" fill-opacity="0" stroke="rgb(26,26,26)" stroke-opacity="1" stroke-width="2" d=" M1342.7349853515625,488.1059875488281 C1342.7349853515625,488.1059875488281 1369.5050048828125,488.1059875488281 1369.5050048828125,488.1059875488281"/></g><g opacity="1" transform="matrix(1,0,0,1,0,0)"><path fill="rgb(255,255,255)" fill-opacity="1" d=" M1344.095947265625,495.7170104980469 C1344.095947265625,495.7170104980469 1368.14501953125,495.7170104980469 1368.14501953125,495.7170104980469"/><path stroke-linecap="round" stroke-linejoin="round" fill-opacity="0" stroke="rgb(26,26,26)" stroke-opacity="1" stroke-width="2" d=" M1344.095947265625,495.7170104980469 C1344.095947265625,495.7170104980469 1368.14501953125,495.7170104980469 1368.14501953125,495.7170104980469"/></g><g opacity="1" transform="matrix(1,0,0,1,1355.5009765625,446.885009765625)"><path stroke-linecap="round" stroke-linejoin="round" fill-opacity="0" stroke="rgb(26,26,26)" stroke-opacity="1" stroke-width="2" d=" M-5.574999809265137,28.70199966430664 C-5.574999809265137,28.70199966430664 -22.496999740600586,-21.14299964904785 -19.797000885009766,-24.92300033569336 C-17.09600067138672,-28.702999114990234 -13.229000091552734,-18.128999710083008 -8.744999885559082,-18.81399917602539 C-4.26200008392334,-19.499000549316406 -6.114999771118164,-27.89900016784668 -1.0750000476837158,-27.982999801635742 C3.9649999141693115,-28.066999435424805 0.8370000123977661,-19.405000686645508 5.946000099182129,-18.441999435424805 C11.053999900817871,-17.479000091552734 11.097999572753906,-26.916000366210938 16.797000885009766,-26.993000030517578 C22.496999740600586,-27.070999145507812 9.98799991607666,18.802000045776367 7.107999801635742,28.70199966430664"/></g><g opacity="1" transform="matrix(1,0,0,1,1356.2330322265625,471.6000061035156)"><path fill="rgb(28,3,17)" fill-opacity="1" d=" M-9.255999565124512,3.98799991607666 C-9.255999565124512,3.98799991607666 -8.949999809265137,-3.98799991607666 -8.949999809265137,-3.98799991607666 C-8.949999809265137,-3.98799991607666 8.354999542236328,-3.98799991607666 8.354999542236328,-3.98799991607666 C8.354999542236328,-3.98799991607666 9.255999565124512,3.98799991607666 9.255999565124512,3.98799991607666 C9.255999565124512,3.98799991607666 -9.255999565124512,3.98799991607666 -9.255999565124512,3.98799991607666z"/><path stroke-linecap="round" stroke-linejoin="round" fill-opacity="0" stroke="rgb(26,26,26)" stroke-opacity="1" stroke-width="1" d=" M-9.255999565124512,3.98799991607666 C-9.255999565124512,3.98799991607666 -8.949999809265137,-3.98799991607666 -8.949999809265137,-3.98799991607666 C-8.949999809265137,-3.98799991607666 8.354999542236328,-3.98799991607666 8.354999542236328,-3.98799991607666 C8.354999542236328,-3.98799991607666 9.255999565124512,3.98799991607666 9.255999565124512,3.98799991607666 C9.255999565124512,3.98799991607666 -9.255999565124512,3.98799991607666 -9.255999565124512,3.98799991607666z"/></g><g opacity="1" transform="matrix(1,0,0,1,622.5120239257812,327.67498779296875)"><path stroke-linecap="round" stroke-linejoin="round" fill-opacity="0" stroke="rgb(26,26,26)" stroke-opacity="1" stroke-width="2" d=" M-5.803999900817871,-1.2549999952316284 C-5.803999900817871,-1.2549999952316284 5.803999900817871,1.2549999952316284 5.803999900817871,1.2549999952316284"/></g><g opacity="1" transform="matrix(1,0,0,1,614.8259887695312,363.59600830078125)"><path stroke-linecap="round" stroke-linejoin="round" fill-opacity="0" stroke="rgb(26,26,26)" stroke-opacity="1" stroke-width="2" d=" M16.941999435424805,-20.863000869750977 C16.941999435424805,-20.863000869750977 13.491000175476074,-34.665000915527344 13.491000175476074,-34.665000915527344 C-16.941999435424805,0.47099998593330383 11.92199993133545,34.665000915527344 11.92199993133545,34.665000915527344"/></g><g opacity="1" transform="matrix(1,0,0,1,628.3170166015625,400.4570007324219)"><path fill="rgb(28,3,17)" fill-opacity="1" d=" M6.589000225067139,0 C6.589000225067139,-3.638000011444092 3.6389999389648438,-6.5879998207092285 0,-6.5879998207092285 C-3.6389999389648438,-6.5879998207092285 -6.589000225067139,-3.638000011444092 -6.589000225067139,0 C-6.589000225067139,3.6389999389648438 -3.6389999389648438,6.5879998207092285 0,6.5879998207092285 C3.6389999389648438,6.5879998207092285 6.589000225067139,3.6389999389648438 6.589000225067139,0z"/><path stroke-linecap="round" stroke-linejoin="round" fill-opacity="0" stroke="rgb(26,26,26)" stroke-opacity="1" stroke-width="1" d=" M6.589000225067139,0 C6.589000225067139,-3.638000011444092 3.6389999389648438,-6.5879998207092285 0,-6.5879998207092285 C-3.6389999389648438,-6.5879998207092285 -6.589000225067139,-3.638000011444092 -6.589000225067139,0 C-6.589000225067139,3.6389999389648438 -3.6389999389648438,6.5879998207092285 0,6.5879998207092285 C3.6389999389648438,6.5879998207092285 6.589000225067139,3.6389999389648438 6.589000225067139,0z"/></g><g opacity="1" transform="matrix(1,0,0,1,780.7949829101562,225.875)"><path stroke-linecap="round" stroke-linejoin="round" fill-opacity="0" stroke="rgb(26,26,26)" stroke-opacity="1" stroke-width="2" d=" M30.746999740600586,1.3070000410079956 C30.746999740600586,1.3070000410079956 30.746999740600586,11.763999938964844 30.746999740600586,11.763999938964844 C-4.705999851226807,-11.765000343322754 -30.746999740600586,11.763999938964844 -30.746999740600586,11.763999938964844"/></g><g opacity="1" transform="matrix(1,0,0,1,807.22900390625,239.44700622558594)"><path stroke-linecap="round" stroke-linejoin="round" fill-opacity="0" stroke="rgb(26,26,26)" stroke-opacity="1" stroke-width="2" d=" M-4.314000129699707,1.8079999685287476 C-4.314000129699707,1.8079999685287476 4.314000129699707,-1.8079999685287476 4.314000129699707,-1.8079999685287476"/></g><g opacity="1" transform="matrix(1,0,0,1,751.85302734375,234.74099731445312)"><path fill="rgb(28,3,17)" fill-opacity="1" d=" M4.706999778747559,0 C4.706999778747559,-2.5989999771118164 2.5989999771118164,-4.705999851226807 0,-4.705999851226807 C-2.5989999771118164,-4.705999851226807 -4.705999851226807,-2.5989999771118164 -4.705999851226807,0 C-4.705999851226807,2.5989999771118164 -2.5989999771118164,4.705999851226807 0,4.705999851226807 C2.5989999771118164,4.705999851226807 4.706999778747559,2.5989999771118164 4.706999778747559,0z"/><path stroke-linecap="round" stroke-linejoin="round" fill-opacity="0" stroke="rgb(26,26,26)" stroke-opacity="1" stroke-width="1" d=" M4.706999778747559,0 C4.706999778747559,-2.5989999771118164 2.5989999771118164,-4.705999851226807 0,-4.705999851226807 C-2.5989999771118164,-4.705999851226807 -4.705999851226807,-2.5989999771118164 -4.705999851226807,0 C-4.705999851226807,2.5989999771118164 -2.5989999771118164,4.705999851226807 0,4.705999851226807 C2.5989999771118164,4.705999851226807 4.706999778747559,2.5989999771118164 4.706999778747559,0z"/></g><g opacity="1" transform="matrix(1,0,0,1,548.7440185546875,298.385986328125)"><path fill="rgb(255,255,255)" fill-opacity="1" d=" M63.6510009765625,0 C63.6510009765625,35.150001525878906 35.152000427246094,63.64500045776367 0,63.64500045776367 C-35.15399932861328,63.64500045776367 -63.6510009765625,35.150001525878906 -63.6510009765625,0 C-63.6510009765625,-35.150001525878906 -35.15399932861328,-63.64500045776367 0,-63.64500045776367 C35.152000427246094,-63.64500045776367 63.6510009765625,-35.150001525878906 63.6510009765625,0z"/><path stroke-linecap="round" stroke-linejoin="round" fill-opacity="0" stroke="rgb(26,26,26)" stroke-opacity="1" stroke-width="2" d=" M63.6510009765625,0 C63.6510009765625,35.150001525878906 35.152000427246094,63.64500045776367 0,63.64500045776367 C-35.15399932861328,63.64500045776367 -63.6510009765625,35.150001525878906 -63.6510009765625,0 C-63.6510009765625,-35.150001525878906 -35.15399932861328,-63.64500045776367 0,-63.64500045776367 C35.152000427246094,-63.64500045776367 63.6510009765625,-35.150001525878906 63.6510009765625,0z"/></g><g opacity="1" transform="matrix(1,0,0,1,1215.3289794921875,387.0780029296875)"><path fill="rgb(255,255,255)" fill-opacity="1" d=" M27.295000076293945,14.5 C27.295000076293945,14.5 -27.29599952697754,14.5 -27.29599952697754,14.5 C-27.29599952697754,14.5 -27.29599952697754,-14.5 -27.29599952697754,-14.5 C-27.29599952697754,-14.5 27.295000076293945,-14.5 27.295000076293945,-14.5 C27.295000076293945,-14.5 27.295000076293945,14.5 27.295000076293945,14.5z"/><path stroke-linecap="round" stroke-linejoin="round" fill-opacity="0" stroke="rgb(26,26,26)" stroke-opacity="1" stroke-width="2" d=" M27.295000076293945,14.5 C27.295000076293945,14.5 -27.29599952697754,14.5 -27.29599952697754,14.5 C-27.29599952697754,14.5 -27.29599952697754,-14.5 -27.29599952697754,-14.5 C-27.29599952697754,-14.5 27.295000076293945,-14.5 27.295000076293945,-14.5 C27.295000076293945,-14.5 27.295000076293945,14.5 27.295000076293945,14.5z"/></g><g opacity="1" transform="matrix(1,0,0,1,548.7449951171875,298.385986328125)"><path fill="rgb(28,3,17)" fill-opacity="1" d=" M10.901000022888184,-9.498000144958496 C12.91100025177002,-11.937000274658203 14.116999626159668,-15.062000274658203 14.116999626159668,-18.4689998626709 C14.116999626159668,-26.266000747680664 7.796999931335449,-32.58700180053711 0,-32.58700180053711 C-7.796999931335449,-32.58700180053711 -14.119999885559082,-26.266000747680664 -14.119999885559082,-18.4689998626709 C-14.119999885559082,-15.062000274658203 -12.91100025177002,-11.937000274658203 -10.901000022888184,-9.498000144958496 C-21.349000930786133,-5.205999851226807 -28.70800018310547,5.065000057220459 -28.70800018310547,17.05900001525879 C-28.70800018310547,17.05900001525879 -28.70800018310547,32.58700180053711 -28.70800018310547,32.58700180053711 C-28.70800018310547,32.58700180053711 28.707000732421875,32.58700180053711 28.707000732421875,32.58700180053711 C28.707000732421875,32.58700180053711 28.707000732421875,17.05900001525879 28.707000732421875,17.05900001525879 C28.707000732421875,5.065000057220459 21.347999572753906,-5.205999851226807 10.901000022888184,-9.498000144958496z"/><path stroke-linecap="round" stroke-linejoin="round" fill-opacity="0" stroke="rgb(26,26,26)" stroke-opacity="1" stroke-width="1" d=" M10.901000022888184,-9.498000144958496 C12.91100025177002,-11.937000274658203 14.116999626159668,-15.062000274658203 14.116999626159668,-18.4689998626709 C14.116999626159668,-26.266000747680664 7.796999931335449,-32.58700180053711 0,-32.58700180053711 C-7.796999931335449,-32.58700180053711 -14.119999885559082,-26.266000747680664 -14.119999885559082,-18.4689998626709 C-14.119999885559082,-15.062000274658203 -12.91100025177002,-11.937000274658203 -10.901000022888184,-9.498000144958496 C-21.349000930786133,-5.205999851226807 -28.70800018310547,5.065000057220459 -28.70800018310547,17.05900001525879 C-28.70800018310547,17.05900001525879 -28.70800018310547,32.58700180053711 -28.70800018310547,32.58700180053711 C-28.70800018310547,32.58700180053711 28.707000732421875,32.58700180053711 28.707000732421875,32.58700180053711 C28.707000732421875,32.58700180053711 28.707000732421875,17.05900001525879 28.707000732421875,17.05900001525879 C28.707000732421875,5.065000057220459 21.347999572753906,-5.205999851226807 10.901000022888184,-9.498000144958496z"/></g><g opacity="1" transform="matrix(1,0,0,1,1215.3289794921875,316.8070068359375)"><path fill="rgb(255,255,255)" fill-opacity="1" d=" M27.295000076293945,14.5 C27.295000076293945,14.5 -27.29599952697754,14.5 -27.29599952697754,14.5 C-27.29599952697754,14.5 -27.29599952697754,-14.5 -27.29599952697754,-14.5 C-27.29599952697754,-14.5 27.295000076293945,-14.5 27.295000076293945,-14.5 C27.295000076293945,-14.5 27.295000076293945,14.5 27.295000076293945,14.5z"/><path stroke-linecap="round" stroke-linejoin="round" fill-opacity="0" stroke="rgb(26,26,26)" stroke-opacity="1" stroke-width="2" d=" M27.295000076293945,14.5 C27.295000076293945,14.5 -27.29599952697754,14.5 -27.29599952697754,14.5 C-27.29599952697754,14.5 -27.29599952697754,-14.5 -27.29599952697754,-14.5 C-27.29599952697754,-14.5 27.295000076293945,-14.5 27.295000076293945,-14.5 C27.295000076293945,-14.5 27.295000076293945,14.5 27.295000076293945,14.5z"/></g><g opacity="1" transform="matrix(1,0,0,1,1215.3289794921875,457.35101318359375)"><path fill="rgb(255,255,255)" fill-opacity="1" d=" M27.295000076293945,14.5 C27.295000076293945,14.5 -27.29599952697754,14.5 -27.29599952697754,14.5 C-27.29599952697754,14.5 -27.29599952697754,-14.5 -27.29599952697754,-14.5 C-27.29599952697754,-14.5 27.295000076293945,-14.5 27.295000076293945,-14.5 C27.295000076293945,-14.5 27.295000076293945,14.5 27.295000076293945,14.5z"/><path stroke-linecap="round" stroke-linejoin="round" fill-opacity="0" stroke="rgb(26,26,26)" stroke-opacity="1" stroke-width="2" d=" M27.295000076293945,14.5 C27.295000076293945,14.5 -27.29599952697754,14.5 -27.29599952697754,14.5 C-27.29599952697754,14.5 -27.29599952697754,-14.5 -27.29599952697754,-14.5 C-27.29599952697754,-14.5 27.295000076293945,-14.5 27.295000076293945,-14.5 C27.295000076293945,-14.5 27.295000076293945,14.5 27.295000076293945,14.5z"/></g></g><g opacity="1" transform="matrix(1,0,0,1,1018.1290283203125,390.2650146484375)"><path stroke-linecap="round" stroke-linejoin="round" fill-opacity="0" stroke-dasharray=" 8.026 8.026" stroke-dashoffset="139.11038208007812" stroke="rgb(26,26,26)" stroke-opacity="1" stroke-width="2" d=" M196.84100341796875,149.00999450683594 C196.84100341796875,149.00999450683594 -196.83900451660156,149.00999450683594 -196.83900451660156,149.00999450683594 C-207.78500366210938,149.00999450683594 -216.65899658203125,140.13800048828125 -216.65899658203125,129.1929931640625 C-216.65899658203125,129.1929931640625 -216.65899658203125,-129.1929931640625 -216.65899658203125,-129.1929931640625 C-216.65899658203125,-140.13800048828125 -207.78500366210938,-149.00999450683594 -196.83900451660156,-149.00999450683594 C-196.83900451660156,-149.00999450683594 196.84100341796875,-149.00999450683594 196.84100341796875,-149.00999450683594 C207.78599548339844,-149.00999450683594 216.65899658203125,-140.13800048828125 216.65899658203125,-129.1929931640625 C216.65899658203125,-129.1929931640625 216.65899658203125,129.1929931640625 216.65899658203125,129.1929931640625 C216.65899658203125,140.13800048828125 207.78599548339844,149.00999450683594 196.84100341796875,149.00999450683594z"/></g><g opacity="1" transform="matrix(1,0,0,1,710.5570068359375,306.3059997558594)"><path stroke-linecap="round" stroke-linejoin="round" fill-opacity="0" stroke-dasharray=" 8 8" stroke-dashoffset="110.85358428955078" stroke="rgb(26,26,26)" stroke-opacity="1" stroke-width="2" d=" M48.04199981689453,55.13199996948242 C48.04199981689453,55.13199996948242 -52.0890007019043,55.13199996948242 -52.0890007019043,55.13199996948242 C-59.90399932861328,55.13199996948242 -66.23899841308594,48.797000885009766 -66.23899841308594,40.981998443603516 C-66.23899841308594,40.981998443603516 -66.23899841308594,-36.933998107910156 -66.23899841308594,-36.933998107910156 C-66.23899841308594,-46.98400115966797 -58.09199905395508,-55.13199996948242 -48.04199981689453,-55.13199996948242 C-48.04199981689453,-55.13199996948242 48.04199981689453,-55.13199996948242 48.04199981689453,-55.13199996948242 C58.09199905395508,-55.13199996948242 66.23899841308594,-46.98400115966797 66.23899841308594,-36.933998107910156 C66.23899841308594,-36.933998107910156 66.23899841308594,36.93600082397461 66.23899841308594,36.93600082397461 C66.23899841308594,46.986000061035156 58.09199905395508,55.13199996948242 48.04199981689453,55.13199996948242z"/></g><g opacity="1" transform="matrix(1,0,0,1,1159.6390380859375,257.40301513671875)"><path fill="rgb(255,255,255)" fill-opacity="1" d=" M34.35499954223633,0 C34.35499954223633,18.972000122070312 18.974000930786133,34.35200119018555 0.0010000000474974513,34.35200119018555 C-18.972999572753906,34.35200119018555 -34.35499954223633,18.972000122070312 -34.35499954223633,0 C-34.35499954223633,-18.972000122070312 -18.972999572753906,-34.35200119018555 0.0010000000474974513,-34.35200119018555 C18.974000930786133,-34.35200119018555 34.35499954223633,-18.972000122070312 34.35499954223633,0z"/><path stroke-linecap="round" stroke-linejoin="round" fill-opacity="0" stroke="rgb(26,26,26)" stroke-opacity="1" stroke-width="2" d=" M34.35499954223633,0 C34.35499954223633,18.972000122070312 18.974000930786133,34.35200119018555 0.0010000000474974513,34.35200119018555 C-18.972999572753906,34.35200119018555 -34.35499954223633,18.972000122070312 -34.35499954223633,0 C-34.35499954223633,-18.972000122070312 -18.972999572753906,-34.35200119018555 0.0010000000474974513,-34.35200119018555 C18.974000930786133,-34.35200119018555 34.35499954223633,-18.972000122070312 34.35499954223633,0z"/></g><g opacity="1" transform="matrix(0.9993370175361633,-0.03640825301408768,0.03640825301408768,0.9993370175361633,1160.3309326171875,252.8695068359375)"><path fill="rgb(28,3,17)" fill-opacity="1" d=" M15.199999809265137,13.628999710083008 C14.4350004196167,9.244999885559082 15.822999954223633,-10.538999557495117 2.681999921798706,-14.236000061035156 C3.0360000133514404,-14.755999565124512 3.24399995803833,-15.383000373840332 3.24399995803833,-16.059999465942383 C3.24399995803833,-17.85099983215332 1.7910000085830688,-19.30299949645996 0,-19.30299949645996 C-1.7920000553131104,-19.30299949645996 -3.24399995803833,-17.85099983215332 -3.24399995803833,-16.059999465942383 C-3.24399995803833,-15.383000373840332 -3.0360000133514404,-14.755999565124512 -2.681999921798706,-14.236000061035156 C-15.822999954223633,-10.539999961853027 -14.434000015258789,9.244999885559082 -15.197999954223633,13.628999710083008 C-21.077999114990234,14.442000389099121 -19.253000259399414,19.30299949645996 -19.253000259399414,19.30299949645996 C-19.253000259399414,19.30299949645996 0,19.30299949645996 0,19.30299949645996 C0,19.30299949645996 19.253999710083008,19.30299949645996 19.253999710083008,19.30299949645996 C19.253999710083008,19.30299949645996 21.07900047302246,14.442000389099121 15.199999809265137,13.628999710083008z"/><path stroke-linecap="round" stroke-linejoin="round" fill-opacity="0" stroke="rgb(26,26,26)" stroke-opacity="1" stroke-width="1" d=" M15.199999809265137,13.628999710083008 C14.4350004196167,9.244999885559082 15.822999954223633,-10.538999557495117 2.681999921798706,-14.236000061035156 C3.0360000133514404,-14.755999565124512 3.24399995803833,-15.383000373840332 3.24399995803833,-16.059999465942383 C3.24399995803833,-17.85099983215332 1.7910000085830688,-19.30299949645996 0,-19.30299949645996 C-1.7920000553131104,-19.30299949645996 -3.24399995803833,-17.85099983215332 -3.24399995803833,-16.059999465942383 C-3.24399995803833,-15.383000373840332 -3.0360000133514404,-14.755999565124512 -2.681999921798706,-14.236000061035156 C-15.822999954223633,-10.539999961853027 -14.434000015258789,9.244999885559082 -15.197999954223633,13.628999710083008 C-21.077999114990234,14.442000389099121 -19.253000259399414,19.30299949645996 -19.253000259399414,19.30299949645996 C-19.253000259399414,19.30299949645996 0,19.30299949645996 0,19.30299949645996 C0,19.30299949645996 19.253999710083008,19.30299949645996 19.253999710083008,19.30299949645996 C19.253999710083008,19.30299949645996 21.07900047302246,14.442000389099121 15.199999809265137,13.628999710083008z"/></g></g><g transform="matrix(0.999923050403595,-0.012406757101416588,0.012406757101416588,0.999923050403595,-368.224365234375,72.04473876953125)" opacity="1" style="display: block;"><g opacity="1" transform="matrix(0.9995400905609131,0.030324848368763924,-0.030324848368763924,0.9995400905609131,846.4015502929688,288.8200988769531)"><path fill="rgb(255,255,255)" fill-opacity="1" d=" M-29.17799949645996,16.312999725341797 C-29.17799949645996,16.312999725341797 -9.411999702453613,-32.3120002746582 7.53000020980835,-25.097000122070312 C24.472000122070312,-17.881999969482422 29.17799949645996,1.8819999694824219 26.354000091552734,9.725000381469727 C23.5310001373291,17.56800079345703 11.92199993133545,21.018999099731445 11.92199993133545,21.018999099731445 C11.92199993133545,21.018999099731445 5.334000110626221,19.763999938964844 4.392000198364258,14.744999885559082 C-6.275000095367432,29.174999237060547 -14.746000289916992,32.3129997253418 -14.746000289916992,32.3129997253418 C-14.746000289916992,32.3129997253418 -29.17799949645996,16.312999725341797 -29.17799949645996,16.312999725341797z"/><path stroke-linecap="round" stroke-linejoin="round" fill-opacity="0" stroke="rgb(26,26,26)" stroke-opacity="1" stroke-width="2" d=" M-29.17799949645996,16.312999725341797 C-29.17799949645996,16.312999725341797 -9.411999702453613,-32.3120002746582 7.53000020980835,-25.097000122070312 C24.472000122070312,-17.881999969482422 29.17799949645996,1.8819999694824219 26.354000091552734,9.725000381469727 C23.5310001373291,17.56800079345703 11.92199993133545,21.018999099731445 11.92199993133545,21.018999099731445 C11.92199993133545,21.018999099731445 5.334000110626221,19.763999938964844 4.392000198364258,14.744999885559082 C-6.275000095367432,29.174999237060547 -14.746000289916992,32.3129997253418 -14.746000289916992,32.3129997253418 C-14.746000289916992,32.3129997253418 -29.17799949645996,16.312999725341797 -29.17799949645996,16.312999725341797z"/></g><g opacity="1" transform="matrix(1,0,0,1,830.1290283203125,402.885009765625)"><path fill="rgb(255,129,44)" fill-opacity="1" d=" M63.14105987548828,128.36500549316406 C63.14105987548828,128.36500549316406 -37.51767349243164,106.87517547607422 -61.28767395019531,36.30917739868164 C-79.74067687988281,-18.474821090698242 -18.92527961730957,-91.94510650634766 -10.595192909240723,-113.67703247070312 C12.578784942626953,-93.24922180175781 13.008807182312012,-86.14903259277344 13.008807182312012,-86.14903259277344 C13.008807182312012,-86.14903259277344 -25.8090763092041,-20.540082931518555 -10.701460838317871,8.702415466308594 C2.708868980407715,37.49829864501953 58.44130325317383,42.43647766113281 77.93600463867188,41.4721794128418"/><path stroke-linecap="round" stroke-linejoin="round" fill-opacity="0" stroke="rgb(0,0,0)" stroke-opacity="1" stroke-width="2" d=" M63.14105987548828,128.36500549316406 C63.14105987548828,128.36500549316406 -37.51767349243164,106.87517547607422 -61.28767395019531,36.30917739868164 C-79.74067687988281,-18.474821090698242 -18.92527961730957,-91.94510650634766 -10.595192909240723,-113.67703247070312 C12.578784942626953,-93.24922180175781 13.008807182312012,-86.14903259277344 13.008807182312012,-86.14903259277344 C13.008807182312012,-86.14903259277344 -25.8090763092041,-20.540082931518555 -10.701460838317871,8.702415466308594 C2.708868980407715,37.49829864501953 58.44130325317383,42.43647766113281 77.93600463867188,41.4721794128418"/></g></g><g transform="matrix(0.999923050403595,-0.012406757101416588,0.012406757101416588,0.999923050403595,-368.224365234375,72.04473876953125)" opacity="1" style="display: block;"><g opacity="1" transform="matrix(1,0,0,1,973.4730224609375,556.8280029296875)"><path fill="rgb(255,129,44)" fill-opacity="1" d=" M-82.23500061035156,-26.500999450683594 C-67.39099884033203,48.07099914550781 -96.6719970703125,102.99700164794922 -96.6719970703125,102.99700164794922 C-96.6719970703125,102.99700164794922 30.293800354003906,120.35083770751953 54.039798736572266,107.7578353881836 C78.51080322265625,55.96483612060547 104.84400177001953,-105.00399780273438 54.018001556396484,-112.51000213623047 C3.190000057220459,-120.01599884033203 -63.082000732421875,-112.51000213623047 -63.082000732421875,-112.51000213623047 C-63.082000732421875,-112.51000213623047 -63.082000732421875,-112.51000213623047 -63.082000732421875,-112.51000213623047 C-63.082000732421875,-112.51000213623047 -64.86499786376953,-112.48899841308594 -67.51499938964844,-111.7979965209961"/><path stroke-linecap="round" stroke-linejoin="round" fill-opacity="0" stroke="rgb(0,0,0)" stroke-opacity="1" stroke-width="2" d=" M-82.23500061035156,-26.500999450683594 C-67.39099884033203,48.07099914550781 -96.6719970703125,102.99700164794922 -96.6719970703125,102.99700164794922 C-96.6719970703125,102.99700164794922 30.293800354003906,120.35083770751953 54.039798736572266,107.7578353881836 C78.51080322265625,55.96483612060547 104.84400177001953,-105.00399780273438 54.018001556396484,-112.51000213623047 C3.190000057220459,-120.01599884033203 -63.082000732421875,-112.51000213623047 -63.082000732421875,-112.51000213623047 C-63.082000732421875,-112.51000213623047 -63.082000732421875,-112.51000213623047 -63.082000732421875,-112.51000213623047 C-63.082000732421875,-112.51000213623047 -64.86499786376953,-112.48899841308594 -67.51499938964844,-111.7979965209961"/></g></g><g transform="matrix(0.9993909001350403,-0.03489791601896286,0.03489791601896286,0.9993909001350403,-378.46856689453125,94.25646209716797)" opacity="1" style="display: block;"><g opacity="1" transform="matrix(1,0,0,1,969.041015625,418.67498779296875)"><path fill="rgb(255,255,255)" fill-opacity="1" d=" M-19.77400016784668,14.053999900817871 C-17.05500030517578,24.534000396728516 -23.7549991607666,25.417999267578125 -30.59000015258789,36.36800003051758 C-30.58799934387207,48.983001708984375 6.122000217437744,79.39600372314453 28.707000732421875,41.54499816894531 C27.82900047302246,8.343999862670898 23.530000686645508,16.759000778198242 23.530000686645508,16.759000778198242 C37.020999908447266,-7.868000030517578 45.17900085449219,-64.96600341796875 23.466999053955078,-72.18099975585938 C1.75600004196167,-79.39600372314453 -16.315000534057617,-61.82699966430664 -16.315000534057617,-61.82699966430664 C-16.315000534057617,-61.82699966430664 -45.17900085449219,0.7580000162124634 -28.23699951171875,10.404999732971191 C-11.295000076293945,20.052000045776367 9.411999702453613,15.347000122070312 9.411999702453613,15.347000122070312"/><path stroke-linecap="round" stroke-linejoin="round" fill-opacity="0" stroke="rgb(26,26,26)" stroke-opacity="1" stroke-width="2" d=" M-19.77400016784668,14.053999900817871 C-17.05500030517578,24.534000396728516 -23.7549991607666,25.417999267578125 -30.59000015258789,36.36800003051758 C-30.58799934387207,48.983001708984375 6.122000217437744,79.39600372314453 28.707000732421875,41.54499816894531 C27.82900047302246,8.343999862670898 23.530000686645508,16.759000778198242 23.530000686645508,16.759000778198242 C37.020999908447266,-7.868000030517578 45.17900085449219,-64.96600341796875 23.466999053955078,-72.18099975585938 C1.75600004196167,-79.39600372314453 -16.315000534057617,-61.82699966430664 -16.315000534057617,-61.82699966430664 C-16.315000534057617,-61.82699966430664 -45.17900085449219,0.7580000162124634 -28.23699951171875,10.404999732971191 C-11.295000076293945,20.052000045776367 9.411999702453613,15.347000122070312 9.411999702453613,15.347000122070312"/></g><g opacity="1" transform="matrix(1,0,0,1,974.22900390625,382.72900390625)"><path fill="rgb(28,3,17)" fill-opacity="1" d=" M-29.18899917602539,-41.4109992980957 C-29.18899917602539,-41.4109992980957 -46.071998596191406,-26.822999954223633 -11.982000350952148,-10.824000358581543 C13.63700008392334,-1.4119999408721924 6.578000068664551,7.5279998779296875 7.988999843597412,17.881000518798828 C7.988999843597412,17.881000518798828 10.343000411987305,21.645999908447266 10.343000411987305,21.645999908447266 C10.343000411987305,21.645999908447266 11.284000396728516,11.293000221252441 17.400999069213867,15.057999610900879 C23.518999099731445,18.82200050354004 25.87299919128418,32.939998626708984 17.400999069213867,39.527000427246094 C18.343000411987305,52.70399856567383 24.93199920654297,49.880001068115234 24.93199920654297,49.880001068115234 C24.93199920654297,49.880001068115234 38.57899856567383,31.05699920654297 40.46200180053711,17.881000518798828 C42.345001220703125,4.704999923706055 46.071998596191406,-11.723999977111816 36.696998596191406,-19.764999389648438 C42.81399917602539,-35.763999938964844 6.250999927520752,-52.70399856567383 -26.292999267578125,-41.4109992980957"/><path stroke-linecap="round" stroke-linejoin="round" fill-opacity="0" stroke="rgb(26,26,26)" stroke-opacity="1" stroke-width="1" d=" M-29.18899917602539,-41.4109992980957 C-29.18899917602539,-41.4109992980957 -46.071998596191406,-26.822999954223633 -11.982000350952148,-10.824000358581543 C13.63700008392334,-1.4119999408721924 6.578000068664551,7.5279998779296875 7.988999843597412,17.881000518798828 C7.988999843597412,17.881000518798828 10.343000411987305,21.645999908447266 10.343000411987305,21.645999908447266 C10.343000411987305,21.645999908447266 11.284000396728516,11.293000221252441 17.400999069213867,15.057999610900879 C23.518999099731445,18.82200050354004 25.87299919128418,32.939998626708984 17.400999069213867,39.527000427246094 C18.343000411987305,52.70399856567383 24.93199920654297,49.880001068115234 24.93199920654297,49.880001068115234 C24.93199920654297,49.880001068115234 38.57899856567383,31.05699920654297 40.46200180053711,17.881000518798828 C42.345001220703125,4.704999923706055 46.071998596191406,-11.723999977111816 36.696998596191406,-19.764999389648438 C42.81399917602539,-35.763999938964844 6.250999927520752,-52.70399856567383 -26.292999267578125,-41.4109992980957"/></g><g opacity="1" transform="matrix(1,0,0,1,964.802001953125,436.18499755859375)"><path fill="rgb(28,3,17)" fill-opacity="1" d=" M-15.534000396728516,2.8580000400543213 C-15.534000396728516,2.8580000400543213 -15.534000396728516,-3.4560000896453857 -15.534000396728516,-3.4560000896453857 C-4.1539998054504395,-1.1130000352859497 6.60099983215332,-0.17000000178813934 15.534000396728516,-3.322999954223633 C14.595000267028809,1.3949999809265137 4.239999771118164,3.4549999237060547 -15.534000396728516,2.8580000400543213z"/><path stroke-linecap="round" stroke-linejoin="round" fill-opacity="0" stroke="rgb(26,26,26)" stroke-opacity="1" stroke-width="1" d=" M-15.534000396728516,2.8580000400543213 C-15.534000396728516,2.8580000400543213 -15.534000396728516,-3.4560000896453857 -15.534000396728516,-3.4560000896453857 C-4.1539998054504395,-1.1130000352859497 6.60099983215332,-0.17000000178813934 15.534000396728516,-3.322999954223633 C14.595000267028809,1.3949999809265137 4.239999771118164,3.4549999237060547 -15.534000396728516,2.8580000400543213z"/></g></g><g transform="matrix(1,0,0,1,-360,60)" opacity="1" style="display: block;"><g opacity="1" transform="matrix(1,0,0,1,987.6300048828125,691.9089965820312)"><path fill="rgb(255,255,255)" fill-opacity="1" d=" M36.354000091552734,-27.176000595092773 C113.6510009765625,-68.302001953125 159.53799438476562,-62.935001373291016 159.53799438476562,-62.935001373291016 C159.53799438476562,-62.935001373291016 176.47999572753906,-57.34199905395508 177.89100646972656,-36.87200164794922 C179.30299377441406,-16.402999877929688 13.413999557495117,68.302001953125 13.413999557495117,68.302001953125 C13.413999557495117,68.302001953125 -71.2979965209961,63.35900115966797 -92.47599792480469,52.770999908447266 C-113.65299987792969,42.18299865722656 -179.3040008544922,-17.108999252319336 -179.3040008544922,-17.108999252319336 C-179.3040008544922,-17.108999252319336 -144.71299743652344,-20.652000427246094 -136.947998046875,-22.409000396728516 C-129.18299865722656,-24.16699981689453 -56.625,-46.75400161743164 -56.625,-46.75400161743164"/><path stroke-linecap="round" stroke-linejoin="round" fill-opacity="0" stroke="rgb(26,26,26)" stroke-opacity="1" stroke-width="2" d=" M36.354000091552734,-27.176000595092773 C113.6510009765625,-68.302001953125 159.53799438476562,-62.935001373291016 159.53799438476562,-62.935001373291016 C159.53799438476562,-62.935001373291016 176.47999572753906,-57.34199905395508 177.89100646972656,-36.87200164794922 C179.30299377441406,-16.402999877929688 13.413999557495117,68.302001953125 13.413999557495117,68.302001953125 C13.413999557495117,68.302001953125 -71.2979965209961,63.35900115966797 -92.47599792480469,52.770999908447266 C-113.65299987792969,42.18299865722656 -179.3040008544922,-17.108999252319336 -179.3040008544922,-17.108999252319336 C-179.3040008544922,-17.108999252319336 -144.71299743652344,-20.652000427246094 -136.947998046875,-22.409000396728516 C-129.18299865722656,-24.16699981689453 -56.625,-46.75400161743164 -56.625,-46.75400161743164"/></g><g opacity="1" transform="matrix(1,0,0,1,1071.4110107421875,704.60400390625)"><path fill="rgb(255,255,255)" fill-opacity="1" d=" M70.46399688720703,-75.85800170898438 C105.95500183105469,-77.95899963378906 145.48599243164062,-35.76300048828125 102.19000244140625,-3.2950000762939453 C58.89400100708008,29.174999237060547 -55.77899932861328,75.18499755859375 -55.77899932861328,75.18499755859375 C-55.77899932861328,75.18499755859375 -130.13499450683594,77.95800018310547 -140.01800537109375,54.900001525878906 C-145.48599243164062,42.141998291015625 -87.2699966430664,5.408999919891357 -27.07200050354004,-28.391000747680664"/><path stroke-linecap="round" stroke-linejoin="round" fill-opacity="0" stroke="rgb(26,26,26)" stroke-opacity="1" stroke-width="2" d=" M70.46399688720703,-75.85800170898438 C105.95500183105469,-77.95899963378906 145.48599243164062,-35.76300048828125 102.19000244140625,-3.2950000762939453 C58.89400100708008,29.174999237060547 -55.77899932861328,75.18499755859375 -55.77899932861328,75.18499755859375 C-55.77899932861328,75.18499755859375 -130.13499450683594,77.95800018310547 -140.01800537109375,54.900001525878906 C-145.48599243164062,42.141998291015625 -87.2699966430664,5.408999919891357 -27.07200050354004,-28.391000747680664"/></g><g opacity="1" transform="matrix(1,0,0,1,830.3909912109375,775.4929809570312)"><path fill="rgb(28,3,17)" fill-opacity="1" d=" M-40.18299865722656,-35.28200149536133 C-40.18299865722656,-35.28200149536133 -64.76300048828125,1.1069999933242798 -45.36000061035156,25.187999725341797 C-39.242000579833984,35.28300094604492 9.229999542236328,18.363000869750977 24.760000228881836,14.128000259399414 C40.29100036621094,9.892999649047852 64.76300048828125,0 64.76300048828125,0"/><path stroke-linecap="round" stroke-linejoin="round" fill-opacity="0" stroke="rgb(26,26,26)" stroke-opacity="1" stroke-width="1" d=" M-40.18299865722656,-35.28200149536133 C-40.18299865722656,-35.28200149536133 -64.76300048828125,1.1069999933242798 -45.36000061035156,25.187999725341797 C-39.242000579833984,35.28300094604492 9.229999542236328,18.363000869750977 24.760000228881836,14.128000259399414 C40.29100036621094,9.892999649047852 64.76300048828125,0 64.76300048828125,0"/></g><g opacity="1" transform="matrix(1,0,0,1,960.6649780273438,779.7890014648438)"><path fill="rgb(255,255,255)" fill-opacity="1" d=" M21.599000930786133,15.126999855041504 C25.820999145507812,4.046000003814697 24.97599983215332,-8.718999862670898 20.086000442504883,-19.465999603271484 C14.217000007629395,-18.332000732421875 10.019000053405762,-17.766000747680664 8.37600040435791,-18.2450008392334 C0.8460000157356262,-20.44099998474121 -16.09600067138672,-23.266000747680664 -16.09600067138672,-23.266000747680664 C-16.09600067138672,-23.266000747680664 -25.820999145507812,9.04800033569336 -25.820999145507812,9.04800033569336 C-25.820999145507812,9.04800033569336 -10.628999710083008,17.259000778198242 16.409000396728516,23.266000747680664 C18.659000396728516,20.96299934387207 20.475000381469727,18.312000274658203 21.599000930786133,15.126999855041504z"/><path stroke-linecap="round" stroke-linejoin="round" fill-opacity="0" stroke="rgb(26,26,26)" stroke-opacity="1" stroke-width="2" d=" M21.599000930786133,15.126999855041504 C25.820999145507812,4.046000003814697 24.97599983215332,-8.718999862670898 20.086000442504883,-19.465999603271484 C14.217000007629395,-18.332000732421875 10.019000053405762,-17.766000747680664 8.37600040435791,-18.2450008392334 C0.8460000157356262,-20.44099998474121 -16.09600067138672,-23.266000747680664 -16.09600067138672,-23.266000747680664 C-16.09600067138672,-23.266000747680664 -25.820999145507812,9.04800033569336 -25.820999145507812,9.04800033569336 C-25.820999145507812,9.04800033569336 -10.628999710083008,17.259000778198242 16.409000396728516,23.266000747680664 C18.659000396728516,20.96299934387207 20.475000381469727,18.312000274658203 21.599000930786133,15.126999855041504z"/></g><g opacity="1" transform="matrix(1,0,0,1,1037.218017578125,786.4920043945312)"><path fill="rgb(28,3,17)" fill-opacity="1" d=" M30.33799934387207,-38.125 C7.035999774932861,-41.558998107910156 -35.439998626708984,-30.229000091552734 -56.46699905395508,-26.170000076293945 C-51.57699966430664,-15.42300033569336 -50.731998443603516,-2.6579999923706055 -54.95399856567383,8.42300033569336 C-56.077999114990234,11.607000350952148 -57.89400100708008,14.258999824523926 -60.14400100708008,16.562000274658203 C-56.82500076293945,17.298999786376953 -53.33700180053711,18.006000518798828 -49.66600036621094,18.656999588012695 C-16.09600067138672,24.618000030517578 42.88800048828125,41.558998107910156 45.71200180053711,26.5 C48.53499984741211,11.440999984741211 60.14400100708008,-33.733001708984375 30.33799934387207,-38.125z"/><path stroke-linecap="round" stroke-linejoin="round" fill-opacity="0" stroke="rgb(26,26,26)" stroke-opacity="1" stroke-width="1" d=" M30.33799934387207,-38.125 C7.035999774932861,-41.558998107910156 -35.439998626708984,-30.229000091552734 -56.46699905395508,-26.170000076293945 C-51.57699966430664,-15.42300033569336 -50.731998443603516,-2.6579999923706055 -54.95399856567383,8.42300033569336 C-56.077999114990234,11.607000350952148 -57.89400100708008,14.258999824523926 -60.14400100708008,16.562000274658203 C-56.82500076293945,17.298999786376953 -53.33700180053711,18.006000518798828 -49.66600036621094,18.656999588012695 C-16.09600067138672,24.618000030517578 42.88800048828125,41.558998107910156 45.71200180053711,26.5 C48.53499984741211,11.440999984741211 60.14400100708008,-33.733001708984375 30.33799934387207,-38.125z"/></g><g opacity="1" transform="matrix(1,0,0,1,862.9639892578125,712.4400024414062)"><path fill="rgb(255,255,255)" fill-opacity="1" d=" M-28.98900032043457,-35.2869987487793 C-28.98900032043457,-35.2869987487793 88.19400024414062,29.18199920654297 91.95800018310547,44.71099853515625 C95.7229995727539,60.23899841308594 71.2509994506836,83.76899719238281 71.2509994506836,83.76899719238281 C71.2509994506836,83.76899719238281 -148.89300537109375,21.5310001373291 -157.4669952392578,-31.052000045776367 C-164.5260009765625,-74.34400177001953 -135.8209991455078,-80.96600341796875 -110.60700225830078,-82.36699676513672 C-85.39299774169922,-83.76899719238281 13.836999893188477,-55.05099868774414 13.836999893188477,-55.05099868774414 C13.836999893188477,-55.05099868774414 116.43000030517578,-47.707000732421875 116.43000030517578,-47.707000732421875 C116.43000030517578,-47.707000732421875 164.5260009765625,-49.500999450683594 164.5260009765625,-49.500999450683594"/><path stroke-linecap="round" stroke-linejoin="round" fill-opacity="0" stroke="rgb(26,26,26)" stroke-opacity="1" stroke-width="2" d=" M-28.98900032043457,-35.2869987487793 C-28.98900032043457,-35.2869987487793 88.19400024414062,29.18199920654297 91.95800018310547,44.71099853515625 C95.7229995727539,60.23899841308594 71.2509994506836,83.76899719238281 71.2509994506836,83.76899719238281 C71.2509994506836,83.76899719238281 -148.89300537109375,21.5310001373291 -157.4669952392578,-31.052000045776367 C-164.5260009765625,-74.34400177001953 -135.8209991455078,-80.96600341796875 -110.60700225830078,-82.36699676513672 C-85.39299774169922,-83.76899719238281 13.836999893188477,-55.05099868774414 13.836999893188477,-55.05099868774414 C13.836999893188477,-55.05099868774414 116.43000030517578,-47.707000732421875 116.43000030517578,-47.707000732421875 C116.43000030517578,-47.707000732421875 164.5260009765625,-49.500999450683594 164.5260009765625,-49.500999450683594"/></g><g opacity="1" transform="matrix(1,0,0,1,1017.1610107421875,781.8560180664062)"><path stroke-linecap="round" stroke-linejoin="round" fill-opacity="0" stroke="rgb(255,255,255)" stroke-opacity="1" stroke-width="2" d=" M-20.354000091552734,-17.410999298095703 C-20.354000091552734,-17.410999298095703 -28.118999481201172,12.942000389099121 -18.47100067138672,14.354000091552734 C-8.824000358581543,15.765000343322754 -13.529999732971191,-16.233999252319336 -5.294000148773193,-16.233999252319336 C2.941999912261963,-16.233999252319336 -9.059000015258789,17.41200065612793 0.8240000009536743,18.354000091552734 C10.706999778747559,19.29400062561035 0.35199999809265137,-19.29400062561035 9.059000015258789,-17.410999298095703 C17.764999389648438,-15.529000282287598 5.916999816894531,17.916000366210938 15.135000228881836,18.3700008392334 C24.354000091552734,18.822999954223633 12.119000434875488,-15.293000221252441 20.118999481201172,-15.057000160217285 C28.1200008392334,-14.821999549865723 22.000999450683594,18.631000518798828 26.70800018310547,18.374000549316406"/></g><g opacity="1" transform="matrix(1,0,0,1,819.5120239257812,776.2490234375)"><path stroke-linecap="round" stroke-linejoin="round" fill-opacity="0" stroke="rgb(255,255,255)" stroke-opacity="1" stroke-width="2" d=" M-18.009000778198242,-1.215999960899353 C-18.009000778198242,-1.215999960899353 -16.12700080871582,16.038999557495117 -8.595999717712402,14.470999717712402 C-1.0670000314712524,12.902000427246094 -14.557999610900879,-4.666999816894531 -8.595999717712402,-7.489999771118164 C-2.634999990463257,-10.314000129699707 1.7569999694824219,7.985000133514404 10.541999816894531,7.14900016784668 C10.541999816894531,7.14900016784668 18.010000228881836,7.254000186920166 7.882999897003174,-16.038999557495117"/></g><g opacity="1" transform="matrix(1,0,0,1,849.655029296875,772.3579711914062)"><path stroke-linecap="round" stroke-linejoin="round" fill-opacity="0" stroke="rgb(26,26,26)" stroke-opacity="1" stroke-width="2" d=" M-1.4980000257492065,-4.322999954223633 C-1.4980000257492065,-4.322999954223633 1.4980000257492065,4.322999954223633 1.4980000257492065,4.322999954223633"/></g><g opacity="1" transform="matrix(1,0,0,1,36.57763671875,0)"><g opacity="1" transform="matrix(1,0,0,1,903.6950073242188,659.14599609375)"><path fill="rgb(28,3,17)" fill-opacity="1" d=" M-83.23400115966797,-35.33100128173828 C-83.23400115966797,-35.33100128173828 -38.395999908447266,31.961999893188477 -38.395999908447266,31.961999893188477 C-38.395999908447266,31.961999893188477 83.23300170898438,35.332000732421875 83.23300170898438,35.332000732421875 C83.23300170898438,35.332000732421875 52.48899841308594,-30.475000381469727 52.48899841308594,-30.475000381469727 C52.48899841308594,-30.475000381469727 -83.23400115966797,-35.33100128173828 -83.23400115966797,-35.33100128173828z"/><path stroke-linecap="round" stroke-linejoin="round" fill-opacity="0" stroke="rgb(26,26,26)" stroke-opacity="1" stroke-width="1" d=" M-83.23400115966797,-35.33100128173828 C-83.23400115966797,-35.33100128173828 -38.395999908447266,31.961999893188477 -38.395999908447266,31.961999893188477 C-38.395999908447266,31.961999893188477 83.23300170898438,35.332000732421875 83.23300170898438,35.332000732421875 C83.23300170898438,35.332000732421875 52.48899841308594,-30.475000381469727 52.48899841308594,-30.475000381469727 C52.48899841308594,-30.475000381469727 -83.23400115966797,-35.33100128173828 -83.23400115966797,-35.33100128173828z"/></g><g opacity="1" transform="matrix(1,0,0,1,897.1019897460938,659.14599609375)"><path fill="rgb(255,255,255)" fill-opacity="1" d=" M-83.23400115966797,-35.33100128173828 C-83.23400115966797,-35.33100128173828 -38.395999908447266,31.961999893188477 -38.395999908447266,31.961999893188477 C-38.395999908447266,31.961999893188477 83.23400115966797,35.332000732421875 83.23400115966797,35.332000732421875 C83.23400115966797,35.332000732421875 52.48899841308594,-30.475000381469727 52.48899841308594,-30.475000381469727 C52.48899841308594,-30.475000381469727 -83.23400115966797,-35.33100128173828 -83.23400115966797,-35.33100128173828z"/><path stroke-linecap="round" stroke-linejoin="round" fill-opacity="0" stroke="rgb(26,26,26)" stroke-opacity="1" stroke-width="2" d=" M-83.23400115966797,-35.33100128173828 C-83.23400115966797,-35.33100128173828 -38.395999908447266,31.961999893188477 -38.395999908447266,31.961999893188477 C-38.395999908447266,31.961999893188477 83.23400115966797,35.332000732421875 83.23400115966797,35.332000732421875 C83.23400115966797,35.332000732421875 52.48899841308594,-30.475000381469727 52.48899841308594,-30.475000381469727 C52.48899841308594,-30.475000381469727 -83.23400115966797,-35.33100128173828 -83.23400115966797,-35.33100128173828z"/></g><g opacity="1" transform="matrix(1,0,0,1,903.7039794921875,660.8410034179688)"><path fill="rgb(255,129,44)" fill-opacity="1" d=" M-6.6020002365112305,-10.352999687194824 C-6.6020002365112305,-10.352999687194824 -8.548999786376953,10.352999687194824 -8.548999786376953,10.352999687194824 C-8.548999786376953,10.352999687194824 8.548999786376953,8.052000045776367 8.548999786376953,8.052000045776367 C8.548999786376953,8.052000045776367 -6.6020002365112305,-10.352999687194824 -6.6020002365112305,-10.352999687194824z"/><path stroke-linecap="round" stroke-linejoin="round" fill-opacity="0" stroke="rgb(0,0,0)" stroke-opacity="1" stroke-width="2" d=" M-6.6020002365112305,-10.352999687194824 C-6.6020002365112305,-10.352999687194824 -8.548999786376953,10.352999687194824 -8.548999786376953,10.352999687194824 C-8.548999786376953,10.352999687194824 8.548999786376953,8.052000045776367 8.548999786376953,8.052000045776367 C8.548999786376953,8.052000045776367 -6.6020002365112305,-10.352999687194824 -6.6020002365112305,-10.352999687194824z"/></g></g></g><g transform="matrix(0.9947827458381653,-0.10201621800661087,0.10201621800661087,0.9947827458381653,-402.7127380371094,166.22439575195312)" opacity="1" style="display: block;"><g opacity="1" transform="matrix(1,0,0,1,1010.1019897460938,687.8590087890625)"><path fill="rgb(255,255,255)" fill-opacity="1" d=" M14.942000389099121,-22.469999313354492 C14.942000389099121,-22.469999313354492 -12.354000091552734,-18.469999313354492 -15.177000045776367,-8.588000297546387 C-31.17799949645996,-6.705999851226807 -31.17799949645996,-4.988999843597412 -31.17799949645996,-4.988999843597412 C-31.17799949645996,-4.988999843597412 -28.1200008392334,22.469999313354492 -6.4710001945495605,18 C15.177000045776367,13.529999732971191 31.17799949645996,-9.765000343322754 31.17799949645996,-9.765000343322754 C31.17799949645996,-9.765000343322754 14.942000389099121,-22.469999313354492 14.942000389099121,-22.469999313354492z"/><path stroke-linecap="round" stroke-linejoin="round" fill-opacity="0" stroke="rgb(26,26,26)" stroke-opacity="1" stroke-width="2" d=" M14.942000389099121,-22.469999313354492 C14.942000389099121,-22.469999313354492 -12.354000091552734,-18.469999313354492 -15.177000045776367,-8.588000297546387 C-31.17799949645996,-6.705999851226807 -31.17799949645996,-4.988999843597412 -31.17799949645996,-4.988999843597412 C-31.17799949645996,-4.988999843597412 -28.1200008392334,22.469999313354492 -6.4710001945495605,18 C15.177000045776367,13.529999732971191 31.17799949645996,-9.765000343322754 31.17799949645996,-9.765000343322754 C31.17799949645996,-9.765000343322754 14.942000389099121,-22.469999313354492 14.942000389099121,-22.469999313354492z"/></g><g opacity="1" transform="matrix(1,0,0,1,1074.9029541015625,563.2869873046875)"><path fill="rgb(255,129,44)" fill-opacity="1" d=" M-49.29499816894531,-119.58399963378906 C-49.29499816894531,-119.58399963378906 56.02799987792969,-90.83200073242188 43.573001861572266,4.223999977111816 C32.39699935913086,89.50900268554688 -33.3849983215332,119.58399963378906 -33.3849983215332,119.58399963378906 C-46.20600128173828,119.03800201416016 -56.02799987792969,119.30699920654297 -54.79999923706055,99.51499938964844 C-54.79999923706055,99.51499938964844 -6.067999839782715,26.645999908447266 -6.067999839782715,12.946999549865723 C-6.067999839782715,-0.753000020980835 -23.89699935913086,-43.96799850463867 -43.59299850463867,-53.448001861572266"/><path stroke-linecap="round" stroke-linejoin="round" fill-opacity="0" stroke="rgb(0,0,0)" stroke-opacity="1" stroke-width="2" d=" M-49.29499816894531,-119.58399963378906 C-49.29499816894531,-119.58399963378906 56.02799987792969,-90.83200073242188 43.573001861572266,4.223999977111816 C32.39699935913086,89.50900268554688 -33.3849983215332,119.58399963378906 -33.3849983215332,119.58399963378906 C-46.20600128173828,119.03800201416016 -56.02799987792969,119.30699920654297 -54.79999923706055,99.51499938964844 C-54.79999923706055,99.51499938964844 -6.067999839782715,26.645999908447266 -6.067999839782715,12.946999549865723 C-6.067999839782715,-0.753000020980835 -23.89699935913086,-43.96799850463867 -43.59299850463867,-53.448001861572266"/></g></g><g transform="matrix(1,0,0,1,600,600)" opacity="1" style="display: block;"/></g></g></svg>